# File created by Blade
# Date/Time:  Tue Apr 07 21:25:57 2015
# Frame Rate: 120.000 fps
#------------------------------------------------------
:FULLY-SPECIFIED
:DEGREES
767
root -7.506238 33.990982 1.983862 13.070138 -17.643867 4.022731
Spine -13.365140 -3.137638 -4.430755
Head 9.183328 7.432106 1.468362
LeftShoulder -21.477528 41.184904 17.468696
LeftArm 62.614732 -46.296659 -62.155739
LeftForeArm 4.119023 -0.000000 8.928037
LeftHand 10.106816 -0.000000 9.536122
LeftHandThumb1 -26.253704 0.000000 33.147579
RightShoulder -6.400180 0.766144 -26.483737
RightArm 15.867024 11.281377 52.707891
RightForeArm -10.557135 -0.000000 7.888067
RightHand 10.635897 -0.000000 -5.025495
RightHandThumb1 -24.326973 -0.000000 -32.862282
LeftUpLeg -17.301199 -10.015941 3.944551
LeftLeg 12.725697 -0.000000 -0.000000
LeftFoot -7.688797 16.653992 -20.621946
LeftToeBase -12.856933 -0.000000 0.000000
RightUpLeg -11.634790 -1.147323 2.450660
RightLeg 7.901515 -0.000000 -0.000000
RightFoot 0.536983 -8.277294 13.307722
RightToeBase -22.059751 -0.000000 0.000000
768
root -7.434159 33.987247 1.948139 13.145015 -16.412521 4.162832
Spine -13.494198 -3.819791 -4.459478
Head 9.264139 7.060122 1.528187
LeftShoulder -21.333612 41.179599 17.586035
LeftArm 62.693076 -46.437378 -61.827118
LeftForeArm 4.110653 -0.000000 8.900737
LeftHand 9.965510 -0.000000 9.729368
LeftHandThumb1 -26.253704 0.000000 33.147579
RightShoulder -6.462653 0.603485 -26.600221
RightArm 15.726785 11.471527 52.247922
RightForeArm -10.577177 -0.000000 7.846107
RightHand 10.618957 0.000000 -5.044839
RightHandThumb1 -24.326973 -0.000000 -32.862282
LeftUpLeg -16.920477 -10.319474 4.048140
LeftLeg 12.856864 -0.000000 -0.000000
LeftFoot -7.883918 16.640835 -20.484773
LeftToeBase -13.501395 -0.000000 0.000000
RightUpLeg -11.522508 -0.953830 2.189702
RightLeg 7.448826 -0.000000 -0.000000
RightFoot 0.420263 -8.835538 13.375801
RightToeBase -22.100551 -0.000000 0.000000
769
root -7.361420 33.980558 1.915728 13.216388 -15.174220 4.327447
Spine -13.591859 -4.438708 -4.556800
Head 9.258693 6.629777 1.671860
LeftShoulder -21.168655 41.039972 17.810891
LeftArm 62.826776 -46.492333 -61.616822
LeftForeArm 4.223121 -0.000000 8.931197
LeftHand 9.801872 -0.000000 9.785922
LeftHandThumb1 -26.253704 0.000000 33.147579
RightShoulder -6.675887 0.414562 -26.645453
RightArm 15.633056 11.554098 51.726649
RightForeArm -10.600255 -0.000000 7.803420
RightHand 10.575007 -0.000000 -5.131509
RightHandThumb1 -24.326973 -0.000000 -32.862282
LeftUpLeg -16.539601 -10.453364 4.095140
LeftLeg 12.934330 -0.000000 -0.000000
LeftFoot -7.889819 16.322263 -20.566498
LeftToeBase -13.775112 -0.000000 0.000000
RightUpLeg -11.407941 -0.958327 1.939489
RightLeg 7.045793 -0.000000 -0.000000
RightFoot 0.340488 -9.223770 13.162319
RightToeBase -21.569883 -0.000000 0.000000
770
root -7.289851 33.968563 1.884357 13.236677 -14.019280 4.472430
Spine -13.625724 -4.979727 -4.666277
Head 9.298237 6.153922 1.825289
LeftShoulder -20.977927 40.915055 18.079064
LeftArm 62.999661 -46.572351 -61.533363
LeftForeArm 4.319867 -0.000000 8.977249
LeftHand 9.878211 -0.000000 9.616230
LeftHandThumb1 -26.253704 0.000000 33.147579
RightShoulder -6.929363 0.126476 -26.635334
RightArm 15.723623 11.604748 51.172715
RightForeArm -10.480649 -0.000000 7.638255
RightHand 10.912545 -0.000000 -5.389871
RightHandThumb1 -24.326973 -0.000000 -32.862282
LeftUpLeg -16.102462 -10.727379 4.154026
LeftLeg 12.992391 -0.000000 -0.000000
LeftFoot -8.316470 16.101264 -21.069875
LeftToeBase -12.895389 -0.000000 0.000000
RightUpLeg -11.210859 -0.886678 1.705527
RightLeg 6.583105 -0.000000 -0.000000
RightFoot 0.107905 -9.701428 13.070022
RightToeBase -21.018576 -0.000000 0.000000
771
root -7.218927 33.951423 1.850898 13.287426 -12.902656 4.587159
Spine -13.687414 -5.565040 -4.703850
Head 9.318372 5.792896 1.907635
LeftShoulder -20.822427 40.821477 18.246820
LeftArm 62.993554 -46.702675 -61.259567
LeftForeArm 4.424105 0.000000 9.029958
LeftHand 9.868700 -0.000000 9.535025
LeftHandThumb1 -26.253704 0.000000 33.147579
RightShoulder -7.005931 0.048261 -26.703512
RightArm 15.535512 11.712967 50.645706
RightForeArm -10.621698 -0.000000 7.630222
RightHand 10.690859 -0.000000 -5.503905
RightHandThumb1 -24.326973 -0.000000 -32.862282
LeftUpLeg -15.701999 -10.957506 4.219369
LeftLeg 13.008352 -0.000000 -0.000000
LeftFoot -8.083565 16.139793 -20.648362
LeftToeBase -13.583082 -0.000000 0.000000
RightUpLeg -11.015351 -0.814562 1.522384
RightLeg 6.076258 -0.000000 -0.000000
RightFoot -0.058008 -10.234116 13.011312
RightToeBase -21.012799 -0.000000 0.000000
